# xmcd
#
# Track frame offsets:
#	150
#	14434
#	31751
#	50047
#	64250
#	81007
#	98644
#	120087
#	139684
#	153974
#	171051
#	186626
#	206924
#
# Disc length: 2891 seconds
#
# Revision: 0
# Processed by: cddbd v1.5PL3 Copyright (c) Steve Scherf et al.
# Submitted via: dBpowerAMP V4.0
#
DISCID=aa0b490d
DTITLE=Various Artist - Concrete Corner March 2004
DYEAR=1900
DGENRE=
TTITLE0=Hey Now - Tantric
TTITLE1=Breathing New Life - Damageplan
TTITLE2=Last Train Home - Lostprophets
TTITLE3=Just Like You - Three Day's Grace
TTITLE4=Give Me More - Apartment 26
TTITLE5=Bound - Disturbed
TTITLE6=Unholy Confessions - Avenged Sevenfold
TTITLE7=The Carried - Opiate For the Masses
TTITLE8=Pophecy - Soulfly
TTITLE9=Shine - Josh Todd
TTITLE10=Redefine - Soil
TTITLE11=Archetype Remix - Fear Factory
TTITLE12=I Know - Drugmoneys
EXTD=
EXTT0=
EXTT1=
EXTT2=
EXTT3=
EXTT4=
EXTT5=
EXTT6=
EXTT7=
EXTT8=
EXTT9=
EXTT10=
EXTT11=
EXTT12=
PLAYORDER=
